<mxfile host="app.diagrams.net" modified="2024-01-11T14:01:11.630Z" agent="Mozilla/5.0 (Windows NT 10.0; Win64; x64; rv:121.0) Gecko/20100101 Firefox/121.0" etag="UpfvHTrxOT3x_3rnDrvc" version="22.1.18" type="device">
  <diagram name="PÃ¡gina-1" id="OhWygKlZ2JXN9bgmmjuv">
    <mxGraphModel dx="1194" dy="716" grid="1" gridSize="10" guides="1" tooltips="1" connect="1" arrows="1" fold="1" page="1" pageScale="1" pageWidth="827" pageHeight="1169" math="0" shadow="0">
      <root>
        <mxCell id="0" />
        <mxCell id="1" parent="0" />
        <mxCell id="XHXd0xSX3Ret5VrJ7gnI-1" value="" style="image;aspect=fixed;html=1;points=[];align=center;fontSize=12;image=img/lib/azure2/compute/VM_Images_Classic.svg;" vertex="1" parent="1">
          <mxGeometry x="160" y="140" width="69" height="64" as="geometry" />
        </mxCell>
        <mxCell id="XHXd0xSX3Ret5VrJ7gnI-2" value="" style="image;aspect=fixed;html=1;points=[];align=center;fontSize=12;image=img/lib/azure2/compute/VM_Images_Classic.svg;" vertex="1" parent="1">
          <mxGeometry x="250" y="140" width="69" height="64" as="geometry" />
        </mxCell>
        <mxCell id="XHXd0xSX3Ret5VrJ7gnI-3" value="" style="image;aspect=fixed;html=1;points=[];align=center;fontSize=12;image=img/lib/azure2/compute/VM_Images_Classic.svg;" vertex="1" parent="1">
          <mxGeometry x="70" y="140" width="69" height="64" as="geometry" />
        </mxCell>
        <mxCell id="XHXd0xSX3Ret5VrJ7gnI-4" value="" style="image;aspect=fixed;html=1;points=[];align=center;fontSize=12;image=img/lib/azure2/compute/Automanaged_VM.svg;" vertex="1" parent="1">
          <mxGeometry x="520" y="99" width="68" height="62" as="geometry" />
        </mxCell>
        <mxCell id="XHXd0xSX3Ret5VrJ7gnI-5" value="" style="image;aspect=fixed;html=1;points=[];align=center;fontSize=12;image=img/lib/azure2/compute/Automanaged_VM.svg;" vertex="1" parent="1">
          <mxGeometry x="554" y="117" width="68" height="62" as="geometry" />
        </mxCell>
        <mxCell id="XHXd0xSX3Ret5VrJ7gnI-6" value="" style="image;aspect=fixed;html=1;points=[];align=center;fontSize=12;image=img/lib/azure2/compute/Automanaged_VM.svg;" vertex="1" parent="1">
          <mxGeometry x="588" y="137" width="68" height="62" as="geometry" />
        </mxCell>
        <mxCell id="XHXd0xSX3Ret5VrJ7gnI-9" value="" style="image;aspect=fixed;html=1;points=[];align=center;fontSize=12;image=img/lib/azure2/compute/VM_Images_Classic.svg;" vertex="1" parent="1">
          <mxGeometry x="340" y="140" width="69" height="64" as="geometry" />
        </mxCell>
        <mxCell id="XHXd0xSX3Ret5VrJ7gnI-10" value="" style="image;html=1;image=img/lib/clip_art/computers/Virtual_Machine_128x128.png" vertex="1" parent="1">
          <mxGeometry x="198" y="354" width="100" height="96" as="geometry" />
        </mxCell>
        <mxCell id="XHXd0xSX3Ret5VrJ7gnI-11" value="" style="image;html=1;image=img/lib/clip_art/computers/Virtual_Application_128x128.png" vertex="1" parent="1">
          <mxGeometry x="838" y="348" width="100" height="100" as="geometry" />
        </mxCell>
        <mxCell id="XHXd0xSX3Ret5VrJ7gnI-12" value="" style="shape=image;verticalLabelPosition=bottom;labelBackgroundColor=default;verticalAlign=top;aspect=fixed;imageAspect=0;image=data:image/png,iVBORw0KGgoAAAANSUhEUgAAAEAAAABACAYAAACqaXHeAAAACXBIWXMAAAsTAAALEwEAmpwYAAAH3klEQVR4nO1ba1AUVxq9/xKT/Mmrdo2VH1aSSplaHR7Sg4CaiIlWNGpi3FQ0JlFjcAFhJprHmpcbo8jumlrXhGhiGYgx5qGJMIkGAspGGBxmnG6EGBm6mQVEQKp7mJ7hoQN8W7eZJvPoYbqhB7B2TtWparpv377n3O9+t+/tAaEooogiiiiiiCKKKCKHNRfdU1+m3esyaL4gi3ZVZdHOK3qGd+kYfsBLVxbNt2bSvHFjPX+IIB0rEkzOO9GNDH0zTEmzOfVZjS6TnuEHtjS6QA7X2XjQUhwQFNuvpbhiguKeX2yDm9CNgvS6jtvSG5y5OsbNyhXty0V1DsGAAF4hKHbrfLv9ZjSZsanBvVZHO9tGIxxz1W9OKfHDJEiWJkhuCZps2NLWdutmhj/iKyanpRtOd12Dz9p7RxSdzbhgg42HxdI9L02S/Tze0noLmgz4SwN7bzbtqhcF/dXuhjLHNfAMgoABANjR7IYMmofVl5yw9NcuSK11QEoNB4lyBUuSNWsvtP9hQsWn2fiHdAzfKorf29oDDlG5F70Dg/DUxa4xCA0zJCjH9AkRr2/unqZn+BZR/OGOXrjurx1q3B6h1yMh3mc4MAl1HX8c90yf7RP2hWwf+Gp39g/CO03uMYa4suEwrjNEJu38VhT/eUevn/iWvoGw2TxCJnw4blPdFq/4fVd6hpMdBun2wILakbP5/IqrkP7eJch9sho+Tq4QmPuUWTiHr43JBCv7eMSnO513nn/D7gLWg3P8EJr6+mFhGPErv2iGDx82wsHZv0gSX1t5pHlMSTGiQyG9wZkr9j6e6nzH/PIwmX7ZsctwIPFsSPEi9885C0981zqWobAlYu/2OsYlvN7ubumGfp/Q/1uTO2zDcJiHEy9yzxMmSLSO0gCSa4tIFKTZnHqx94919g2Lp9yesNl+xTctssWL/HP+f0cfBST3nOoGbKZd1aIB25vc0NjbD0xvf9jQx9S9WSuIove/AG1fLYdf96RD1evboXxzrkB8jM/ha7gMLrv11dox5ALulOrreb3EkjZc0hOZt7oY8pNLoaecALDOGJG4TH5SKeQ9WzJ6AyjWk1jXdYdqBmxi3OsDxeN3e7kNOp59EFoOPx1WvEhc9pju4BgSIQfaGm6ZagZk0HxBoAFyX3ELyF0wKFO4LwetD8FnZI5i4QlVlyG2uA5iTtbsU82ALNpVFWgAXtXJaVCPNXZI1HnlJvRY4xSJjy9vAE2heYgGS6lqBmTTv6/4ROIlrZxG5ZM5Y4iA3bLFzza2/C4es8jSqJoBOsblDjQAr+flNq6KfFGxAZXW9Yp6P/anWj8DZhVWO1QzQN/IewINmKOgcbuofMUGvE8eVmSAxmAJMMB0PWIGZDMuRY1Lodqh1ZoqW/xlciGkUB3yn0Gy/uE/ZMC1iA2BDd6tayVcT1bANVITVnyfNQbWUUZFdRPWTgkDVBwC2Qx/2dcARRuYPsysKoMuU1JI8Q5TMmRUnVZcb4KpLcgATaGFUc2ATJofngZHs9mRbGYhbWc95KVUQEFKMVw33AtgnA5gfhDA8qBwjM8VJJdA3txK2LSzXrhHbv2zK5skDDCrNw1urOcP4S82IT5ajMhHyq9CztP+K8HuA3cBHEF+7P7kbr8yeMMk9bS8PBBXVh9kQIzBrN4OUQLpeHI0Ib/gTAfsXRi8AVKjWxNkAJW9JqgcvndBefhdopgfyWADfiBXqWeAyXknXmAoDfvdK6X3AA5pywQTcCRg4mN8TqpszkozJI0wHBJMV4IT4IlqT8LPF9X9uKqluGIlBmzacUnxHkAopu2qDx3+pb8Fj/8icxlSGwTFPS9X/LzKTiHhqWUAToxzKzuDe79aKvvj8Kc2qG7AYhvcRFBcqxwDXtjHqCZe5No8Jug5eNUXHP7m9vtP2iLzOZ2g2K1yDHj7JUp1A97cSPlPfWftkr0/02DZhiKFxUIUsLZwBnzwuEl1A/659JxP4mvD41yi901N889E+AsRQXJLwhmwX8XxLxLXiesmzO2gMZwP7v0T1YOaIsuKiIoXQZBc3kgGqC1epNDzUuJx7xssn6Lxwny7/Wbh+/w4GvDv2JOSYS+IL7KQEQ/9QMRb+Lu0JHcp0gbsjy+Df8w6Djv/dERa/AlTU2zJ+XvQRICgHNOlkqIawvPifoY9mu8F4SIllrz2GIP1ATSRSKzruoOguIrRGvDp7P/AJ/Hl8HFcKeyLPQUfaAph98yv/YRLGlBkoeJPXZyKJgMSjc1T8Pd5LckOyjHgo7hiIax3zTwqKTQUh7O9wXIwvsgyOX4k5YsEil1EUKx9JPH/ijEoEh1gQMvMQvNyNJmRaGye8nrGheN7HzV6gnu+ZFTC307+tj9z3emiSdnrofDyu623vKq/kPf+M+aOA3OGfhcgZnM5fC/mS3ht2Q9X09LOHFilN05BNzL02+qnvfLKhb/r1paee23Zj51vzfvu+nbtNwM7Yo8CJj7G57DgzWtKzqWnV+5J22acNtHtjiKKKBQBb0LcjhDCLyf456szEEKxCKEkhNBchNA8hNAChFAqQmiRl0u9FP9O9ZaZ570nyVvHDG+dU73PmBT/P3AbQug+vF2IEHrMR8x48THvs3Ebbh1v8RqE0JIJEB2KuC2zxtOAWf/vBiBv2E3kEHh0IocAkkCoJDgnIAlihkqC4nUxCeJ7I5oE/wc+2H7kLS4iTgAAAABJRU5ErkJggg==;" vertex="1" parent="1">
          <mxGeometry x="190" y="610" width="116" height="116" as="geometry" />
        </mxCell>
        <mxCell id="XHXd0xSX3Ret5VrJ7gnI-14" value="" style="image;aspect=fixed;html=1;points=[];align=center;fontSize=12;image=img/lib/azure2/compute/Automanaged_VM.svg;" vertex="1" parent="1">
          <mxGeometry x="670" y="99" width="68" height="62" as="geometry" />
        </mxCell>
        <mxCell id="XHXd0xSX3Ret5VrJ7gnI-15" value="" style="image;aspect=fixed;html=1;points=[];align=center;fontSize=12;image=img/lib/azure2/compute/Automanaged_VM.svg;" vertex="1" parent="1">
          <mxGeometry x="704" y="117" width="68" height="62" as="geometry" />
        </mxCell>
        <mxCell id="XHXd0xSX3Ret5VrJ7gnI-16" value="" style="image;aspect=fixed;html=1;points=[];align=center;fontSize=12;image=img/lib/azure2/compute/Automanaged_VM.svg;" vertex="1" parent="1">
          <mxGeometry x="738" y="137" width="68" height="62" as="geometry" />
        </mxCell>
        <mxCell id="XHXd0xSX3Ret5VrJ7gnI-17" value="" style="shape=image;verticalLabelPosition=bottom;labelBackgroundColor=default;verticalAlign=top;aspect=fixed;imageAspect=0;image=data:image/png,iVBORw0KGgoAAAANSUhEUgAAAEAAAABACAYAAACqaXHeAAAACXBIWXMAAAsTAAALEwEAmpwYAAAH3klEQVR4nO1ba1AUVxq9/xKT/Mmrdo2VH1aSSplaHR7Sg4CaiIlWNGpi3FQ0JlFjcAFhJprHmpcbo8jumlrXhGhiGYgx5qGJMIkGAspGGBxmnG6EGBm6mQVEQKp7mJ7hoQN8W7eZJvPoYbqhB7B2TtWparpv377n3O9+t+/tAaEooogiiiiiiCKKKCKHNRfdU1+m3esyaL4gi3ZVZdHOK3qGd+kYfsBLVxbNt2bSvHFjPX+IIB0rEkzOO9GNDH0zTEmzOfVZjS6TnuEHtjS6QA7X2XjQUhwQFNuvpbhiguKeX2yDm9CNgvS6jtvSG5y5OsbNyhXty0V1DsGAAF4hKHbrfLv9ZjSZsanBvVZHO9tGIxxz1W9OKfHDJEiWJkhuCZps2NLWdutmhj/iKyanpRtOd12Dz9p7RxSdzbhgg42HxdI9L02S/Tze0noLmgz4SwN7bzbtqhcF/dXuhjLHNfAMgoABANjR7IYMmofVl5yw9NcuSK11QEoNB4lyBUuSNWsvtP9hQsWn2fiHdAzfKorf29oDDlG5F70Dg/DUxa4xCA0zJCjH9AkRr2/unqZn+BZR/OGOXrjurx1q3B6h1yMh3mc4MAl1HX8c90yf7RP2hWwf+Gp39g/CO03uMYa4suEwrjNEJu38VhT/eUevn/iWvoGw2TxCJnw4blPdFq/4fVd6hpMdBun2wILakbP5/IqrkP7eJch9sho+Tq4QmPuUWTiHr43JBCv7eMSnO513nn/D7gLWg3P8EJr6+mFhGPErv2iGDx82wsHZv0gSX1t5pHlMSTGiQyG9wZkr9j6e6nzH/PIwmX7ZsctwIPFsSPEi9885C0981zqWobAlYu/2OsYlvN7ubumGfp/Q/1uTO2zDcJiHEy9yzxMmSLSO0gCSa4tIFKTZnHqx94919g2Lp9yesNl+xTctssWL/HP+f0cfBST3nOoGbKZd1aIB25vc0NjbD0xvf9jQx9S9WSuIove/AG1fLYdf96RD1evboXxzrkB8jM/ha7gMLrv11dox5ALulOrreb3EkjZc0hOZt7oY8pNLoaecALDOGJG4TH5SKeQ9WzJ6AyjWk1jXdYdqBmxi3OsDxeN3e7kNOp59EFoOPx1WvEhc9pju4BgSIQfaGm6ZagZk0HxBoAFyX3ELyF0wKFO4LwetD8FnZI5i4QlVlyG2uA5iTtbsU82ALNpVFWgAXtXJaVCPNXZI1HnlJvRY4xSJjy9vAE2heYgGS6lqBmTTv6/4ROIlrZxG5ZM5Y4iA3bLFzza2/C4es8jSqJoBOsblDjQAr+flNq6KfFGxAZXW9Yp6P/anWj8DZhVWO1QzQN/IewINmKOgcbuofMUGvE8eVmSAxmAJMMB0PWIGZDMuRY1Lodqh1ZoqW/xlciGkUB3yn0Gy/uE/ZMC1iA2BDd6tayVcT1bANVITVnyfNQbWUUZFdRPWTgkDVBwC2Qx/2dcARRuYPsysKoMuU1JI8Q5TMmRUnVZcb4KpLcgATaGFUc2ATJofngZHs9mRbGYhbWc95KVUQEFKMVw33AtgnA5gfhDA8qBwjM8VJJdA3txK2LSzXrhHbv2zK5skDDCrNw1urOcP4S82IT5ajMhHyq9CztP+K8HuA3cBHEF+7P7kbr8yeMMk9bS8PBBXVh9kQIzBrN4OUQLpeHI0Ib/gTAfsXRi8AVKjWxNkAJW9JqgcvndBefhdopgfyWADfiBXqWeAyXknXmAoDfvdK6X3AA5pywQTcCRg4mN8TqpszkozJI0wHBJMV4IT4IlqT8LPF9X9uKqluGIlBmzacUnxHkAopu2qDx3+pb8Fj/8icxlSGwTFPS9X/LzKTiHhqWUAToxzKzuDe79aKvvj8Kc2qG7AYhvcRFBcqxwDXtjHqCZe5No8Jug5eNUXHP7m9vtP2iLzOZ2g2K1yDHj7JUp1A97cSPlPfWftkr0/02DZhiKFxUIUsLZwBnzwuEl1A/659JxP4mvD41yi901N889E+AsRQXJLwhmwX8XxLxLXiesmzO2gMZwP7v0T1YOaIsuKiIoXQZBc3kgGqC1epNDzUuJx7xssn6Lxwny7/Wbh+/w4GvDv2JOSYS+IL7KQEQ/9QMRb+Lu0JHcp0gbsjy+Df8w6Djv/dERa/AlTU2zJ+XvQRICgHNOlkqIawvPifoY9mu8F4SIllrz2GIP1ATSRSKzruoOguIrRGvDp7P/AJ/Hl8HFcKeyLPQUfaAph98yv/YRLGlBkoeJPXZyKJgMSjc1T8Pd5LckOyjHgo7hiIax3zTwqKTQUh7O9wXIwvsgyOX4k5YsEil1EUKx9JPH/ijEoEh1gQMvMQvNyNJmRaGye8nrGheN7HzV6gnu+ZFTC307+tj9z3emiSdnrofDyu623vKq/kPf+M+aOA3OGfhcgZnM5fC/mS3ht2Q9X09LOHFilN05BNzL02+qnvfLKhb/r1paee23Zj51vzfvu+nbtNwM7Yo8CJj7G57DgzWtKzqWnV+5J22acNtHtjiKKKBQBb0LcjhDCLyf456szEEKxCKEkhNBchNA8hNAChFAqQmiRl0u9FP9O9ZaZ570nyVvHDG+dU73PmBT/P3AbQug+vF2IEHrMR8x48THvs3Ebbh1v8RqE0JIJEB2KuC2zxtOAWf/vBiBv2E3kEHh0IocAkkCoJDgnIAlihkqC4nUxCeJ7I5oE/wc+2H7kLS4iTgAAAABJRU5ErkJggg==;" vertex="1" parent="1">
          <mxGeometry x="714" y="610" width="116" height="116" as="geometry" />
        </mxCell>
        <mxCell id="XHXd0xSX3Ret5VrJ7gnI-18" value="" style="shape=flexArrow;endArrow=classic;html=1;rounded=0;fillColor=#dae8fc;strokeColor=#6c8ebf;strokeWidth=4;entryX=0.5;entryY=1;entryDx=0;entryDy=0;" edge="1" parent="1" target="XHXd0xSX3Ret5VrJ7gnI-32">
          <mxGeometry width="50" height="50" relative="1" as="geometry">
            <mxPoint x="249" y="355" as="sourcePoint" />
            <mxPoint x="250" y="280" as="targetPoint" />
          </mxGeometry>
        </mxCell>
        <mxCell id="XHXd0xSX3Ret5VrJ7gnI-21" value="" style="shape=flexArrow;endArrow=classic;html=1;rounded=0;fillColor=#dae8fc;strokeColor=#6c8ebf;strokeWidth=4;" edge="1" parent="1">
          <mxGeometry width="50" height="50" relative="1" as="geometry">
            <mxPoint x="247.5" y="585" as="sourcePoint" />
            <mxPoint x="247.5" y="505" as="targetPoint" />
          </mxGeometry>
        </mxCell>
        <mxCell id="XHXd0xSX3Ret5VrJ7gnI-22" value="" style="shape=flexArrow;endArrow=classic;html=1;rounded=0;fillColor=#dae8fc;strokeColor=#6c8ebf;strokeWidth=4;" edge="1" parent="1">
          <mxGeometry width="50" height="50" relative="1" as="geometry">
            <mxPoint x="772" y="584.5" as="sourcePoint" />
            <mxPoint x="772" y="504.5" as="targetPoint" />
          </mxGeometry>
        </mxCell>
        <mxCell id="XHXd0xSX3Ret5VrJ7gnI-23" value="HYPERVISOR" style="text;html=1;strokeColor=none;fillColor=none;align=center;verticalAlign=middle;whiteSpace=wrap;rounded=0;fontStyle=1;fontSize=16;" vertex="1" parent="1">
          <mxGeometry x="218" y="450" width="60" height="30" as="geometry" />
        </mxCell>
        <mxCell id="XHXd0xSX3Ret5VrJ7gnI-24" value="HYPERVISOR" style="text;html=1;strokeColor=none;fillColor=none;align=center;verticalAlign=middle;whiteSpace=wrap;rounded=0;fontStyle=1;fontSize=16;" vertex="1" parent="1">
          <mxGeometry x="610" y="448" width="60" height="30" as="geometry" />
        </mxCell>
        <mxCell id="XHXd0xSX3Ret5VrJ7gnI-25" value="" style="image;html=1;image=img/lib/clip_art/computers/Virtual_Machine_128x128.png" vertex="1" parent="1">
          <mxGeometry x="590" y="350" width="100" height="96" as="geometry" />
        </mxCell>
        <mxCell id="XHXd0xSX3Ret5VrJ7gnI-26" value="VAGRANT" style="text;html=1;strokeColor=none;fillColor=none;align=center;verticalAlign=middle;whiteSpace=wrap;rounded=0;fontStyle=1;fontSize=16;" vertex="1" parent="1">
          <mxGeometry x="856" y="448" width="60" height="30" as="geometry" />
        </mxCell>
        <mxCell id="XHXd0xSX3Ret5VrJ7gnI-27" value="" style="image;aspect=fixed;html=1;points=[];align=center;fontSize=12;image=img/lib/azure2/compute/Automanaged_VM.svg;" vertex="1" parent="1">
          <mxGeometry x="822" y="99" width="68" height="62" as="geometry" />
        </mxCell>
        <mxCell id="XHXd0xSX3Ret5VrJ7gnI-28" value="" style="image;aspect=fixed;html=1;points=[];align=center;fontSize=12;image=img/lib/azure2/compute/Automanaged_VM.svg;" vertex="1" parent="1">
          <mxGeometry x="856" y="117" width="70" height="63.82" as="geometry" />
        </mxCell>
        <mxCell id="XHXd0xSX3Ret5VrJ7gnI-29" value="" style="image;aspect=fixed;html=1;points=[];align=center;fontSize=12;image=img/lib/azure2/compute/Automanaged_VM.svg;" vertex="1" parent="1">
          <mxGeometry x="890" y="137" width="68" height="62" as="geometry" />
        </mxCell>
        <mxCell id="XHXd0xSX3Ret5VrJ7gnI-30" value="" style="shape=image;html=1;verticalAlign=top;verticalLabelPosition=bottom;labelBackgroundColor=#ffffff;imageAspect=0;aspect=fixed;image=https://cdn4.iconfinder.com/data/icons/evil-icons-user-interface/64/plus-128.png" vertex="1" parent="1">
          <mxGeometry x="745" y="428" width="50" height="50" as="geometry" />
        </mxCell>
        <mxCell id="XHXd0xSX3Ret5VrJ7gnI-32" value="VMs CLÃSSICAS" style="text;html=1;strokeColor=none;fillColor=none;align=center;verticalAlign=middle;whiteSpace=wrap;rounded=0;fontStyle=1;fontSize=16;" vertex="1" parent="1">
          <mxGeometry x="158" y="222" width="180" height="30" as="geometry" />
        </mxCell>
        <mxCell id="XHXd0xSX3Ret5VrJ7gnI-33" value="" style="shape=flexArrow;endArrow=classic;html=1;rounded=0;fillColor=#dae8fc;strokeColor=#6c8ebf;strokeWidth=4;entryX=0.5;entryY=1;entryDx=0;entryDy=0;" edge="1" parent="1">
          <mxGeometry width="50" height="50" relative="1" as="geometry">
            <mxPoint x="770.5" y="365" as="sourcePoint" />
            <mxPoint x="769.5" y="262" as="targetPoint" />
          </mxGeometry>
        </mxCell>
        <mxCell id="XHXd0xSX3Ret5VrJ7gnI-34" value="VMs AUTOMATIZADAS" style="text;html=1;strokeColor=none;fillColor=none;align=center;verticalAlign=middle;whiteSpace=wrap;rounded=0;fontStyle=1;fontSize=16;" vertex="1" parent="1">
          <mxGeometry x="680" y="222" width="180" height="30" as="geometry" />
        </mxCell>
        <mxCell id="XHXd0xSX3Ret5VrJ7gnI-37" value="" style="verticalLabelPosition=bottom;verticalAlign=top;html=1;shape=mxgraph.basic.x;fillColor=#dae8fc;strokeColor=#6c8ebf;" vertex="1" parent="1">
          <mxGeometry x="440" y="433" width="50" height="40" as="geometry" />
        </mxCell>
      </root>
    </mxGraphModel>
  </diagram>
</mxfile>
